# This file uses centimeters as units for non-parametric coordinates.

g default
v 1370.757812 12.298637 50.000000
v 1358.068115 119.514503 50.000000
v 1337.005371 225.404243 50.000000
v 1307.699707 329.315040 50.000000
v 1270.331543 430.606178 50.000000
v 1225.131348 528.653236 50.000000
v 1172.377808 622.851661 50.000000
v 1112.396118 712.620704 50.000000
v 1045.556152 797.406959 50.000000
v 972.270020 876.687660 50.000000
v 892.989502 949.973915 50.000000
v 808.203369 1016.813881 50.000000
v 718.434448 1076.795692 50.000000
v 624.236084 1129.549354 50.000000
v 526.189087 1174.749794 50.000000
v 424.897980 1212.118202 50.000000
v 320.987183 1241.424110 50.000000
v 215.097443 1262.486976 50.000000
v 107.881546 1275.176918 50.000000
v 0.000502 1279.415565 50.000000
v -107.880547 1275.176918 50.000000
v -215.096466 1262.487220 50.000000
v -320.986237 1241.424476 50.000000
v -424.897064 1212.118690 50.000000
v -526.188232 1174.750526 50.000000
v -624.235352 1129.550209 50.000000
v -718.433777 1076.796669 50.000000
v -808.202881 1016.814979 50.000000
v -892.989136 949.974891 50.000000
v -972.269836 876.688697 50.000000
v -1045.556152 797.408119 50.000000
v -1112.396240 712.622047 50.000000
v -1172.378052 622.853004 50.000000
v -1225.131714 528.654579 50.000000
v -1270.332153 430.607582 50.000000
v -1307.700562 329.316413 50.000000
v -1337.006470 225.405586 50.000000
v -1358.069336 119.515785 50.000000
v -1370.759277 12.299797 50.000000
v -1374.997925 -95.581299 50.000000
v -1370.759277 -203.462395 50.000000
v -1358.069580 -310.678383 50.000000
v -1337.006836 -416.568230 50.000000
v -1307.701050 -520.479119 50.000000
v -1270.332764 -621.770348 50.000000
v -1225.132446 -719.817467 50.000000
v -1172.378906 -814.015953 50.000000
v -1112.397217 -903.785118 50.000000
v -1045.557129 -988.571434 50.000000
v -972.270935 -1067.852196 50.000000
v -892.990295 -1141.138512 50.000000
v -808.204163 -1207.978722 50.000000
v -718.434998 -1267.960656 50.000000
v -624.236572 -1320.714318 50.000000
v -526.189453 -1365.914757 50.000000
v -424.898163 -1403.283165 50.000000
v -320.987274 -1432.589196 50.000000
v -215.097366 -1453.652062 50.000000
v -107.881325 -1466.342003 50.000000
v -0.000133 -1470.580773 50.000000
v 107.881065 -1466.342125 50.000000
v 215.097153 -1453.652306 50.000000
v 320.987091 -1432.589562 50.000000
v 424.898041 -1403.283654 50.000000
v 526.189331 -1365.915245 50.000000
v 624.236572 -1320.714928 50.000000
v 718.435120 -1267.961266 50.000000
v 808.204285 -1207.979454 50.000000
v 892.990662 -1141.139367 50.000000
v 972.271423 -1067.853112 50.000000
v 1045.557739 -988.572411 50.000000
v 1112.397949 -903.786156 50.000000
v 1172.379883 -814.017052 50.000000
v 1225.133667 -719.818444 50.000000
v 1270.334106 -621.771325 50.000000
v 1307.702515 -520.479973 50.000000
v 1337.008423 -416.568993 50.000000
v 1358.071289 -310.679009 50.000000
v 1370.761353 -203.462891 50.000000
v 1375.000000 -95.581627 50.000000
v 1233.682129 1.510612 50.000000
v 1222.261353 98.004890 50.000000
v 1203.304932 193.305671 50.000000
v 1176.929688 286.825355 50.000000
v 1143.298340 377.987403 50.000000
v 1102.618164 466.229774 50.000000
v 1055.140015 551.008339 50.000000
v 1001.156555 631.800453 50.000000
v 941.000549 708.108131 50.000000
v 875.043030 779.460731 50.000000
v 803.690552 845.418312 50.000000
v 727.383057 905.574318 50.000000
v 646.591003 959.558021 50.000000
v 561.812439 1007.036293 50.000000
v 473.570190 1047.716590 50.000000
v 382.408173 1081.348182 50.000000
v 288.888458 1107.723549 50.000000
v 193.587708 1126.680091 50.000000
v 97.093391 1138.100990 50.000000
v 0.000452 1141.915809 50.000000
v -97.092491 1138.101112 50.000000
v -193.586823 1126.680336 50.000000
v -288.887634 1107.723793 50.000000
v -382.407349 1081.348671 50.000000
v -473.569397 1047.717323 50.000000
v -561.811768 1007.037025 50.000000
v -646.590393 959.558876 50.000000
v -727.382629 905.575294 50.000000
v -803.690247 845.419288 50.000000
v -875.042847 779.461647 50.000000
v -941.000549 708.109169 50.000000
v -1001.156616 631.801674 50.000000
v -1055.140259 551.009498 50.000000
v -1102.618530 466.230995 50.000000
v -1143.298950 377.988685 50.000000
v -1176.930420 286.826606 50.000000
v -1203.305786 193.306892 50.000000
v -1222.262451 98.006034 50.000000
v -1233.683350 1.511657 50.000000
v -1237.498169 -95.581332 50.000000
v -1233.683350 -192.674317 50.000000
v -1222.262573 -289.168709 50.000000
v -1203.306152 -384.469567 50.000000
v -1176.930908 -477.989342 50.000000
v -1143.299438 -569.151482 50.000000
v -1102.619263 -657.393883 50.000000
v -1055.140991 -742.172570 50.000000
v -1001.157532 -822.964745 50.000000
v -941.001404 -899.272484 50.000000
v -875.043823 -970.625145 50.000000
v -803.691284 -1036.582848 50.000000
v -727.383728 -1096.738976 50.000000
v -646.591492 -1150.722741 50.000000
v -561.812927 -1198.201134 50.000000
v -473.570496 -1238.881432 50.000000
v -382.408356 -1272.513024 50.000000
v -288.888550 -1298.888390 50.000000
v -193.587631 -1317.845055 50.000000
v -97.093193 -1329.265953 50.000000
v -0.000120 -1333.080773 50.000000
v 97.092957 -1329.266076 50.000000
v 193.587448 -1317.845299 50.000000
v 288.888397 -1298.888756 50.000000
v 382.408234 -1272.513390 50.000000
v 473.570404 -1238.881920 50.000000
v 561.812927 -1198.201622 50.000000
v 646.591614 -1150.723351 50.000000
v 727.383850 -1096.739708 50.000000
v 803.691589 -1036.583641 50.000000
v 875.044250 -970.625939 50.000000
v 941.002014 -899.273339 50.000000
v 1001.158142 -822.965722 50.000000
v 1055.141846 -742.173485 50.000000
v 1102.620239 -657.394799 50.000000
v 1143.300659 -569.152337 50.000000
v 1176.932251 -477.990136 50.000000
v 1203.307617 -384.470238 50.000000
v 1222.264160 -289.169274 50.000000
v 1233.685181 -192.674759 50.000000
v 1237.500000 -95.581627 50.000000
vt 0.260252 0.999992
vt 0.272683 0.999992
vt 0.285118 0.999992
vt 0.297558 0.999992
vt 0.310003 0.999992
vt 0.322452 0.999992
vt 0.334906 0.999992
vt 0.347365 0.999992
vt 0.359828 0.999992
vt 0.372295 0.999992
vt 0.384766 0.999992
vt 0.397242 0.999992
vt 0.409723 0.999992
vt 0.422207 0.999992
vt 0.434695 0.999992
vt 0.447188 0.999992
vt 0.459685 0.999992
vt 0.472185 0.999992
vt 0.484690 0.999992
vt 0.497198 0.999992
vt 0.509710 0.999992
vt 0.522226 0.999992
vt 0.534746 0.999992
vt 0.547269 0.999992
vt 0.559796 0.999992
vt 0.572327 0.999992
vt 0.584861 0.999992
vt 0.597399 0.999992
vt 0.609940 0.999992
vt 0.622484 0.999992
vt 0.635032 0.999992
vt 0.647583 0.999992
vt 0.660137 0.999992
vt 0.672694 0.999992
vt 0.685255 0.999992
vt 0.697818 0.999992
vt 0.710385 0.999992
vt 0.722955 0.999992
vt 0.735527 0.999992
vt 0.748102 0.999992
vt 0.760680 0.999992
vt 0.773261 0.999992
vt 0.785845 0.999992
vt 0.798432 0.999992
vt 0.811021 0.999992
vt 0.823613 0.999992
vt 0.836207 0.999992
vt 0.848804 0.999992
vt 0.861404 0.999992
vt 0.874006 0.999992
vt 0.886611 0.999992
vt 0.899219 0.999992
vt 0.911830 0.999992
vt 0.924445 0.999992
vt 0.937065 0.999992
vt 0.949693 0.999992
vt 0.962336 0.999992
vt 0.975008 0.999992
vt 0.987708 0.999997
vt 0.000000 0.999987
vt 0.012513 0.999987
vt 0.024957 0.999992
vt 0.037332 0.999992
vt 0.049686 0.999992
vt 0.062037 0.999992
vt 0.074390 0.999992
vt 0.086746 0.999992
vt 0.099107 0.999992
vt 0.111472 0.999992
vt 0.123843 0.999992
vt 0.136218 0.999992
vt 0.148599 0.999992
vt 0.160984 0.999992
vt 0.173375 0.999992
vt 0.185771 0.999992
vt 0.198172 0.999992
vt 0.210578 0.999992
vt 0.222989 0.999992
vt 0.235405 0.999992
vt 0.247826 0.999992
vt 0.260252 0.000008
vt 0.272683 0.000008
vt 0.285118 0.000008
vt 0.297558 0.000008
vt 0.310003 0.000008
vt 0.322452 0.000008
vt 0.334906 -0.000003
vt 0.347365 -0.000003
vt 0.359828 0.000003
vt 0.372295 0.000003
vt 0.384766 0.000003
vt 0.397242 0.000003
vt 0.409723 0.000003
vt 0.422207 0.000003
vt 0.434695 0.000003
vt 0.447188 0.000003
vt 0.459685 0.000003
vt 0.472185 0.000003
vt 0.484690 0.000003
vt 0.497198 0.000003
vt 0.509710 0.000003
vt 0.522226 0.000003
vt 0.534746 0.000003
vt 0.547269 0.000003
vt 0.559796 0.000003
vt 0.572327 0.000003
vt 0.584861 0.000008
vt 0.597399 0.000008
vt 0.609940 0.000008
vt 0.622484 -0.000003
vt 0.635032 -0.000003
vt 0.647583 0.000008
vt 0.660137 -0.000003
vt 0.672694 0.000003
vt 0.685255 0.000003
vt 0.697818 0.000003
vt 0.710385 0.000003
vt 0.722955 0.000003
vt 0.735527 0.000003
vt 0.748102 0.000003
vt 0.760680 0.000003
vt 0.773261 0.000003
vt 0.785845 0.000003
vt 0.798432 0.000003
vt 0.811021 0.000003
vt 0.823613 0.000003
vt 0.836207 0.000003
vt 0.848804 0.000003
vt 0.861404 0.000003
vt 0.874006 0.000003
vt 0.886611 0.000003
vt 0.899219 0.000003
vt 0.911830 0.000003
vt 0.924445 0.000003
vt 0.937065 0.000003
vt 0.949693 0.000003
vt 0.962336 0.000003
vt 0.975008 0.000008
vt 0.987708 0.000008
vt 1.000000 0.000008
vt 0.012513 -0.000003
vt 0.024957 -0.000003
vt 0.037332 0.000003
vt 0.049686 0.000003
vt 0.062037 0.000003
vt 0.074390 0.000003
vt 0.086746 0.000003
vt 0.099107 0.000003
vt 0.111472 0.000003
vt 0.123843 0.000003
vt 0.136218 0.000003
vt 0.148599 0.000003
vt 0.160984 0.000003
vt 0.173375 0.000003
vt 0.185771 0.000003
vt 0.198172 0.000003
vt 0.210578 0.000003
vt 0.222989 0.000003
vt 0.235405 0.000003
vt 0.247826 0.000003
vt 1.000000 0.999997
vt 0.000000 -0.000003
vn 0.000000 0.000000 1.000000
vn 0.000000 0.000000 1.000000
vn 0.000000 0.000000 1.000000
vn 0.000000 0.000000 1.000000
vn 0.000000 0.000000 1.000000
vn 0.000000 0.000000 1.000000
vn 0.000000 0.000000 1.000000
vn 0.000000 0.000000 1.000000
vn 0.000000 0.000000 1.000000
vn 0.000000 0.000000 1.000000
vn 0.000000 0.000000 1.000000
vn 0.000000 0.000000 1.000000
vn 0.000000 0.000000 1.000000
vn 0.000000 0.000000 1.000000
vn 0.000000 0.000000 1.000000
vn 0.000000 0.000000 1.000000
vn 0.000000 0.000000 1.000000
vn 0.000000 0.000000 1.000000
vn 0.000000 0.000000 1.000000
vn 0.000000 0.000000 1.000000
vn 0.000000 0.000000 1.000000
vn 0.000000 0.000000 1.000000
vn 0.000000 -0.000000 1.000000
vn 0.000000 -0.000000 1.000000
vn 0.000000 0.000000 1.000000
vn 0.000000 0.000000 1.000000
vn 0.000000 0.000000 1.000000
vn 0.000000 0.000000 1.000000
vn 0.000000 0.000000 1.000000
vn 0.000000 0.000000 1.000000
vn 0.000000 -0.000000 1.000000
vn 0.000000 0.000000 1.000000
vn 0.000000 -0.000000 1.000000
vn 0.000000 -0.000000 1.000000
vn 0.000000 0.000000 1.000000
vn 0.000000 0.000000 1.000000
vn 0.000000 0.000000 1.000000
vn 0.000000 0.000000 1.000000
vn 0.000000 -0.000000 1.000000
vn 0.000000 -0.000000 1.000000
vn 0.000000 0.000000 1.000000
vn 0.000000 0.000000 1.000000
vn 0.000000 0.000000 1.000000
vn 0.000000 0.000000 1.000000
vn 0.000000 0.000000 1.000000
vn 0.000000 0.000000 1.000000
vn 0.000000 0.000000 1.000000
vn 0.000000 0.000000 1.000000
vn 0.000000 0.000000 1.000000
vn 0.000000 0.000000 1.000000
vn 0.000000 -0.000000 1.000000
vn 0.000000 -0.000000 1.000000
vn 0.000000 0.000000 1.000000
vn 0.000000 -0.000000 1.000000
vn 0.000000 0.000000 1.000000
vn 0.000000 0.000000 1.000000
vn 0.000000 0.000000 1.000000
vn 0.000000 0.000000 1.000000
vn 0.000000 0.000000 1.000000
vn 0.000000 0.000000 1.000000
vn 0.000000 0.000000 1.000000
vn 0.000000 0.000000 1.000000
vn 0.000000 0.000000 1.000000
vn 0.000000 0.000000 1.000000
vn 0.000000 0.000000 1.000000
vn 0.000000 0.000000 1.000000
vn 0.000000 0.000000 1.000000
vn 0.000000 0.000000 1.000000
vn 0.000000 0.000000 1.000000
vn 0.000000 0.000000 1.000000
vn 0.000000 0.000000 1.000000
vn 0.000000 0.000000 1.000000
vn 0.000000 0.000000 1.000000
vn 0.000000 0.000000 1.000000
vn 0.000000 0.000000 1.000000
vn 0.000000 0.000000 1.000000
vn 0.000000 0.000000 1.000000
vn 0.000000 0.000000 1.000000
vn 0.000000 0.000000 1.000000
vn 0.000000 -0.000000 1.000000
vn 0.000000 0.000000 1.000000
vn 0.000000 0.000000 1.000000
vn 0.000000 0.000000 1.000000
vn 0.000000 0.000000 1.000000
vn 0.000000 -0.000000 1.000000
vn 0.000000 -0.000000 1.000000
vn 0.000000 -0.000000 1.000000
vn 0.000000 -0.000000 1.000000
vn 0.000000 0.000000 1.000000
vn 0.000000 0.000000 1.000000
vn 0.000000 -0.000000 1.000000
vn 0.000000 -0.000000 1.000000
vn 0.000000 -0.000000 1.000000
vn 0.000000 -0.000000 1.000000
vn 0.000000 0.000000 1.000000
vn 0.000000 0.000000 1.000000
vn 0.000000 0.000000 1.000000
vn 0.000000 0.000000 1.000000
vn 0.000000 0.000000 1.000000
vn 0.000000 0.000000 1.000000
vn 0.000000 -0.000000 1.000000
vn 0.000000 -0.000000 1.000000
vn 0.000000 -0.000000 1.000000
vn 0.000000 -0.000000 1.000000
vn 0.000000 -0.000000 1.000000
vn 0.000000 -0.000000 1.000000
vn 0.000000 0.000000 1.000000
vn 0.000000 0.000000 1.000000
vn 0.000000 0.000000 1.000000
vn 0.000000 0.000000 1.000000
vn 0.000000 0.000000 1.000000
vn 0.000000 0.000000 1.000000
vn 0.000000 0.000000 1.000000
vn 0.000000 0.000000 1.000000
vn 0.000000 0.000000 1.000000
vn 0.000000 0.000000 1.000000
vn 0.000000 0.000000 1.000000
vn 0.000000 0.000000 1.000000
vn 0.000000 -0.000000 1.000000
vn 0.000000 -0.000000 1.000000
vn 0.000000 -0.000000 1.000000
vn 0.000000 -0.000000 1.000000
vn 0.000000 0.000000 1.000000
vn 0.000000 0.000000 1.000000
vn 0.000000 0.000000 1.000000
vn 0.000000 0.000000 1.000000
vn 0.000000 0.000000 1.000000
vn 0.000000 0.000000 1.000000
vn 0.000000 0.000000 1.000000
vn 0.000000 0.000000 1.000000
vn 0.000000 -0.000000 1.000000
vn 0.000000 0.000000 1.000000
vn 0.000000 -0.000000 1.000000
vn 0.000000 -0.000000 1.000000
vn 0.000000 -0.000000 1.000000
vn 0.000000 -0.000000 1.000000
vn 0.000000 0.000000 1.000000
vn 0.000000 0.000000 1.000000
vn 0.000000 0.000000 1.000000
vn 0.000000 0.000000 1.000000
vn 0.000000 0.000000 1.000000
vn 0.000000 0.000000 1.000000
vn 0.000000 0.000000 1.000000
vn 0.000000 0.000000 1.000000
vn 0.000000 0.000000 1.000000
vn 0.000000 0.000000 1.000000
vn 0.000000 0.000000 1.000000
vn 0.000000 0.000000 1.000000
vn 0.000000 0.000000 1.000000
vn 0.000000 0.000000 1.000000
vn 0.000000 0.000000 1.000000
vn 0.000000 0.000000 1.000000
vn 0.000000 0.000000 1.000000
vn 0.000000 0.000000 1.000000
vn 0.000000 0.000000 1.000000
vn 0.000000 0.000000 1.000000
vn 0.000000 0.000000 1.000000
vn 0.000000 0.000000 1.000000
vn 0.000000 0.000000 1.000000
vn 0.000000 0.000000 1.000000
s 1
g pCylinder6
f 1/79/1 2/78/2 82/158/3 81/159/4
f 2/78/2 3/77/5 83/157/6 82/158/3
f 3/77/5 4/76/7 84/156/8 83/157/6
f 4/76/7 5/75/9 85/155/10 84/156/8
f 5/75/9 6/74/11 86/154/12 85/155/10
f 6/74/11 7/73/13 87/153/14 86/154/12
f 7/73/13 8/72/15 88/152/16 87/153/14
f 8/72/15 9/71/17 89/151/18 88/152/16
f 9/71/17 10/70/19 90/150/20 89/151/18
f 10/70/19 11/69/21 91/149/22 90/150/20
f 11/69/21 12/68/23 92/148/24 91/149/22
f 12/68/23 13/67/25 93/147/26 92/148/24
f 13/67/25 14/66/27 94/146/28 93/147/26
f 14/66/27 15/65/29 95/145/30 94/146/28
f 15/65/29 16/64/31 96/144/32 95/145/30
f 16/64/31 17/63/33 97/143/34 96/144/32
f 17/63/33 18/62/35 98/142/36 97/143/34
f 18/62/35 19/61/37 99/141/38 98/142/36
f 19/61/37 20/60/39 100/162/40 99/141/38
f 20/161/39 21/59/41 101/139/42 100/140/40
f 21/59/41 22/58/43 102/138/44 101/139/42
f 22/58/43 23/57/45 103/137/46 102/138/44
f 23/57/45 24/56/47 104/136/48 103/137/46
f 24/56/47 25/55/49 105/135/50 104/136/48
f 25/55/49 26/54/51 106/134/52 105/135/50
f 26/54/51 27/53/53 107/133/54 106/134/52
f 27/53/53 28/52/55 108/132/56 107/133/54
f 28/52/55 29/51/57 109/131/58 108/132/56
f 29/51/57 30/50/59 110/130/60 109/131/58
f 30/50/59 31/49/61 111/129/62 110/130/60
f 31/49/61 32/48/63 112/128/64 111/129/62
f 32/48/63 33/47/65 113/127/66 112/128/64
f 33/47/65 34/46/67 114/126/68 113/127/66
f 34/46/67 35/45/69 115/125/70 114/126/68
f 35/45/69 36/44/71 116/124/72 115/125/70
f 36/44/71 37/43/73 117/123/74 116/124/72
f 37/43/73 38/42/75 118/122/76 117/123/74
f 38/42/75 39/41/77 119/121/78 118/122/76
f 39/41/77 40/40/79 120/120/80 119/121/78
f 40/40/79 41/39/81 121/119/82 120/120/80
f 41/39/81 42/38/83 122/118/84 121/119/82
f 42/38/83 43/37/85 123/117/86 122/118/84
f 43/37/85 44/36/87 124/116/88 123/117/86
f 44/36/87 45/35/89 125/115/90 124/116/88
f 45/35/89 46/34/91 126/114/92 125/115/90
f 46/34/91 47/33/93 127/113/94 126/114/92
f 47/33/93 48/32/95 128/112/96 127/113/94
f 48/32/95 49/31/97 129/111/98 128/112/96
f 49/31/97 50/30/99 130/110/100 129/111/98
f 50/30/99 51/29/101 131/109/102 130/110/100
f 51/29/101 52/28/103 132/108/104 131/109/102
f 52/28/103 53/27/105 133/107/106 132/108/104
f 53/27/105 54/26/107 134/106/108 133/107/106
f 54/26/107 55/25/109 135/105/110 134/106/108
f 55/25/109 56/24/111 136/104/112 135/105/110
f 56/24/111 57/23/113 137/103/114 136/104/112
f 57/23/113 58/22/115 138/102/116 137/103/114
f 58/22/115 59/21/117 139/101/118 138/102/116
f 59/21/117 60/20/119 140/100/120 139/101/118
f 60/20/119 61/19/121 141/99/122 140/100/120
f 61/19/121 62/18/123 142/98/124 141/99/122
f 62/18/123 63/17/125 143/97/126 142/98/124
f 63/17/125 64/16/127 144/96/128 143/97/126
f 64/16/127 65/15/129 145/95/130 144/96/128
f 65/15/129 66/14/131 146/94/132 145/95/130
f 66/14/131 67/13/133 147/93/134 146/94/132
f 67/13/133 68/12/135 148/92/136 147/93/134
f 68/12/135 69/11/137 149/91/138 148/92/136
f 69/11/137 70/10/139 150/90/140 149/91/138
f 70/10/139 71/9/141 151/89/142 150/90/140
f 71/9/141 72/8/143 152/88/144 151/89/142
f 72/8/143 73/7/145 153/87/146 152/88/144
f 73/7/145 74/6/147 154/86/148 153/87/146
f 74/6/147 75/5/149 155/85/150 154/86/148
f 75/5/149 76/4/151 156/84/152 155/85/150
f 76/4/151 77/3/153 157/83/154 156/84/152
f 77/3/153 78/2/155 158/82/156 157/83/154
f 78/2/155 79/1/157 159/81/158 158/82/156
f 79/1/157 80/80/159 160/160/160 159/81/158
f 80/80/159 1/79/1 81/159/4 160/160/160
