# This file uses centimeters as units for non-parametric coordinates.

g default
v 47.049877 12.892931 10.958160
v -47.049877 -12.892931 -10.958160
v 47.336727 7.731493 17.451654
v -46.423206 -23.805040 2.805071
v 48.211468 3.645283 23.305906
v -44.126648 -34.378437 18.026752
v 49.593910 0.614117 28.587250
v -39.774483 -43.844563 34.646633
v 51.555302 -1.638237 33.924496
v -33.487770 -51.079235 51.904026
v 54.472275 -3.331020 40.546017
v -26.318527 -55.291019 68.348984
v 58.620594 -4.253601 49.594082
v -19.762150 -56.774776 82.725204
v 63.596882 -4.057076 61.480988
v -14.749577 -56.577106 94.699646
v 68.435074 -2.744278 75.917931
v -11.389756 -55.655785 104.699333
v 72.160431 -0.705360 92.179100
v -9.376871 -54.542614 113.468048
v 74.203316 1.542862 109.368263
v -8.395094 -53.449478 121.751556
v 74.530975 3.621941 126.628670
v -8.234809 -52.320724 131.128006
v 73.653313 5.363434 142.748489
v -8.815903 -51.184120 141.651154
v 72.023476 6.842422 158.113495
v -10.008224 -50.105972 152.852386
v 69.889908 8.098434 172.958130
v -11.682081 -49.121933 164.482239
v 67.406509 9.150726 187.426682
v -13.728845 -48.255173 176.398621
v 64.678398 10.006561 201.615982
v -16.060318 -47.523941 188.520111
v 61.784409 10.664474 215.592590
v -18.603355 -46.945816 200.798584
v 58.789322 11.115768 229.402893
v -21.294577 -46.540222 213.205414
v 55.751106 11.344711 243.080582
v -24.076139 -46.330444 225.725861
v 52.726662 11.327759 256.649139
v -26.891441 -46.346024 238.354553
v 49.777149 11.031586 270.122833
v -29.680546 -46.625839 251.094009
v 46.974285 10.409729 283.505371
v -32.374321 -47.223206 263.954285
v 44.409439 9.397308 296.784515
v -34.885315 -48.214111 276.953522
v 42.202000 7.900208 309.945496
v -37.089661 -49.709091 290.095978
v 40.424644 5.784790 323.150299
v -38.847992 -51.801727 303.159271
v 39.117569 2.928009 336.428253
v -40.111660 -54.563141 315.995483
v 38.322975 -0.809326 349.751923
v -40.855537 -58.060852 328.467560
v 38.076149 -5.587128 363.068420
v -41.076683 -62.341766 340.402588
v 38.393795 -11.579315 376.294464
v -40.806946 -67.418243 351.611298
v 39.256912 -18.950439 389.298706
v -40.121902 -73.253845 361.909973
v 40.589985 -27.822632 401.904968
v -39.140491 -79.764313 371.162262
v 42.245579 -38.238434 413.911346
v -38.011929 -86.834686 379.311707
v 44.005241 -50.138245 425.129242
v -36.895222 -94.346405 386.389679
vt 0.000000 1.000000
vt 0.000000 0.000000
vt 0.018674 1.000000
vt 0.018674 0.000000
vt 0.034857 1.000000
vt 0.034857 0.000000
vt 0.048906 1.000000
vt 0.048906 0.000000
vt 0.062667 1.000000
vt 0.062667 0.000000
vt 0.079386 1.000000
vt 0.079386 0.000000
vt 0.101877 1.000000
vt 0.101877 0.000000
vt 0.130874 1.000000
vt 0.130873 0.000000
vt 0.165258 1.000000
vt 0.165258 0.000000
vt 0.203071 1.000000
vt 0.203071 0.000000
vt 0.242345 1.000000
vt 0.242345 0.000000
vt 0.281467 1.000000
vt 0.281467 0.000000
vt 0.317999 1.000000
vt 0.317999 0.000000
vt 0.352922 1.000000
vt 0.352922 0.000000
vt 0.386783 1.000000
vt 0.386783 0.000000
vt 0.419896 1.000000
vt 0.419896 0.000000
vt 0.452463 1.000000
vt 0.452463 0.000000
vt 0.484610 1.000000
vt 0.484610 0.000000
vt 0.516420 1.000000
vt 0.516420 0.000000
vt 0.547948 1.000000
vt 0.547948 0.000000
vt 0.579226 1.000000
vt 0.579226 0.000000
vt 0.610265 1.000000
vt 0.610265 0.000000
vt 0.641060 1.000000
vt 0.641060 0.000000
vt 0.671574 1.000000
vt 0.671574 0.000000
vt 0.701787 1.000000
vt 0.701787 0.000000
vt 0.732140 1.000000
vt 0.732140 0.000000
vt 0.762839 1.000000
vt 0.762839 0.000000
vt 0.794025 1.000000
vt 0.794025 0.000000
vt 0.825861 1.000000
vt 0.825860 0.000000
vt 0.858537 1.000000
vt 0.858537 0.000000
vt 0.892225 1.000000
vt 0.892225 0.000000
vt 0.927038 1.000000
vt 0.927038 0.000000
vt 0.962993 1.000000
vt 0.962993 0.000000
vt 1.000000 1.000000
vt 1.000000 0.000000
vn -0.338305 0.729672 0.594246
vn -0.338305 0.729672 0.594246
vn -0.339382 0.738454 0.582671
vn -0.339386 0.738492 0.582621
vn -0.344367 0.759765 0.551514
vn -0.344381 0.759810 0.551443
vn -0.357817 0.787633 0.501598
vn -0.357823 0.787643 0.501580
vn -0.384301 0.817178 0.429573
vn -0.384217 0.817109 0.429780
vn -0.423545 0.839980 0.339179
vn -0.423313 0.839892 0.339688
vn -0.468053 0.850310 0.240622
vn -0.467781 0.850288 0.241231
vn -0.507856 0.849190 0.144770
vn -0.507677 0.849218 0.145238
vn -0.536541 0.841782 0.059390
vn -0.536470 0.841810 0.059638
vn -0.553001 0.833106 -0.011193
vn -0.552987 0.833116 -0.011112
vn -0.559822 0.825976 -0.066051
vn -0.559825 0.825970 -0.066101
vn -0.560846 0.821361 -0.104010
vn -0.560844 0.821353 -0.104081
vn -0.559651 0.818683 -0.128641
vn -0.559649 0.818680 -0.128669
vn -0.558126 0.817224 -0.143668
vn -0.558124 0.817223 -0.143679
vn -0.556950 0.816501 -0.152091
vn -0.556950 0.816501 -0.152095
vn -0.556374 0.816241 -0.155559
vn -0.556374 0.816241 -0.155560
vn -0.556499 0.816269 -0.154964
vn -0.556499 0.816269 -0.154963
vn -0.557382 0.816460 -0.150723
vn -0.557383 0.816460 -0.150722
vn -0.559078 0.816705 -0.142916
vn -0.559078 0.816705 -0.142914
vn -0.561651 0.816886 -0.131319
vn -0.561652 0.816887 -0.131315
vn -0.565196 0.816848 -0.115380
vn -0.565197 0.816848 -0.115376
vn -0.569836 0.816351 -0.094115
vn -0.569837 0.816351 -0.094109
vn -0.575715 0.814991 -0.065890
vn -0.575717 0.814991 -0.065881
vn -0.582957 0.812019 -0.028049
vn -0.582959 0.812018 -0.028036
vn -0.591106 0.806318 0.021077
vn -0.591105 0.806320 0.021068
vn -0.598933 0.796827 0.079665
vn -0.598930 0.796831 0.079645
vn -0.605385 0.782458 0.145836
vn -0.605383 0.782466 0.145804
vn -0.609700 0.761722 0.219194
vn -0.609698 0.761737 0.219147
vn -0.611124 0.733103 0.298477
vn -0.611124 0.733129 0.298412
vn -0.609131 0.695557 0.380998
vn -0.609135 0.695597 0.380919
vn -0.603748 0.649182 0.462656
vn -0.603756 0.649236 0.462571
vn -0.595813 0.595840 0.538499
vn -0.595822 0.595900 0.538423
vn -0.586900 0.539277 0.603928
vn -0.586909 0.539332 0.603870
vn -0.582009 0.510416 0.633041
vn -0.582009 0.510416 0.633041
s 1
g sweep7
f 1/1/1 2/2/2 4/4/3 3/3/4
f 3/3/4 4/4/3 6/6/5 5/5/6
f 5/5/6 6/6/5 8/8/7 7/7/8
f 7/7/8 8/8/7 10/10/9 9/9/10
f 9/9/10 10/10/9 12/12/11 11/11/12
f 11/11/12 12/12/11 14/14/13 13/13/14
f 13/13/14 14/14/13 16/16/15 15/15/16
f 15/15/16 16/16/15 18/18/17 17/17/18
f 17/17/18 18/18/17 20/20/19 19/19/20
f 19/19/20 20/20/19 22/22/21 21/21/22
f 21/21/22 22/22/21 24/24/23 23/23/24
f 23/23/24 24/24/23 26/26/25 25/25/26
f 25/25/26 26/26/25 28/28/27 27/27/28
f 27/27/28 28/28/27 30/30/29 29/29/30
f 29/29/30 30/30/29 32/32/31 31/31/32
f 31/31/32 32/32/31 34/34/33 33/33/34
f 33/33/34 34/34/33 36/36/35 35/35/36
f 35/35/36 36/36/35 38/38/37 37/37/38
f 37/37/38 38/38/37 40/40/39 39/39/40
f 39/39/40 40/40/39 42/42/41 41/41/42
f 41/41/42 42/42/41 44/44/43 43/43/44
f 43/43/44 44/44/43 46/46/45 45/45/46
f 45/45/46 46/46/45 48/48/47 47/47/48
f 47/47/48 48/48/47 50/50/49 49/49/50
f 49/49/50 50/50/49 52/52/51 51/51/52
f 51/51/52 52/52/51 54/54/53 53/53/54
f 53/53/54 54/54/53 56/56/55 55/55/56
f 55/55/56 56/56/55 58/58/57 57/57/58
f 57/57/58 58/58/57 60/60/59 59/59/60
f 59/59/60 60/60/59 62/62/61 61/61/62
f 61/61/62 62/62/61 64/64/63 63/63/64
f 63/63/64 64/64/63 66/66/65 65/65/66
f 65/65/66 66/66/65 68/68/67 67/67/68
