# This file uses centimeters as units for non-parametric coordinates.

g default
v 0.111504 0.030564 0.025971
v -0.111202 -0.030503 -0.025946
v 0.568073 -7.999384 10.145720
v 0.346268 -8.073992 10.111102
v 2.152275 -15.321312 20.672712
v 1.933998 -15.411213 20.660076
v 5.015739 -21.562458 31.609760
v 4.804432 -21.667639 31.623947
v 9.133869 -26.300587 42.892925
v 8.932411 -26.417679 42.935879
v 14.171703 -29.249870 54.414860
v 13.980862 -29.372641 54.480499
v 19.521919 -30.452116 66.120560
v 19.336964 -30.576241 66.199104
v 24.516361 -30.254845 78.051033
v 24.330982 -30.379253 78.129906
v 28.617874 -29.136980 90.274178
v 28.429306 -29.262024 90.342438
v 31.487846 -27.560846 102.798920
v 31.295290 -27.687719 102.848442
v 33.002071 -25.888025 115.545265
v 32.805962 -26.018761 115.574974
v 33.245014 -24.283991 128.872681
v 33.049530 -24.415892 128.884338
v 32.515877 -22.843641 142.201065
v 32.321266 -22.977173 142.198624
v 31.103561 -21.565065 155.488678
v 30.910023 -21.699633 155.476990
v 29.200645 -20.443886 168.730362
v 29.007074 -20.579630 168.710098
v 26.933975 -19.484993 181.924835
v 26.742119 -19.620747 181.898544
v 24.404213 -18.690861 195.083511
v 24.213589 -18.826859 195.052170
v 21.686172 -18.072235 208.212814
v 21.495354 -18.208727 208.178680
v 18.843224 -17.643286 221.323303
v 18.653616 -17.779707 221.285248
v 15.930992 -17.425274 234.423889
v 15.742304 -17.561674 234.382141
v 13.011375 -17.441372 247.523315
v 12.823288 -17.577475 247.480606
v 10.142567 -17.728714 260.629120
v 9.955143 -17.864674 260.585846
v 7.393318 -18.338989 273.753113
v 7.205856 -18.475138 273.706268
v 4.856453 -19.339785 286.893494
v 4.667847 -19.476831 286.844116
v 2.650387 -20.835945 300.042999
v 2.461483 -20.973141 299.998199
v 0.882507 -22.940144 313.179840
v 0.695728 -23.075783 313.130219
v -0.403664 -25.749796 326.235077
v -0.590420 -25.885351 326.188782
v -1.172020 -29.366844 339.134644
v -1.359219 -29.502155 339.085571
v -1.407757 -33.898117 351.762146
v -1.594315 -34.031719 351.708252
v -1.112873 -39.432716 363.981598
v -1.299183 -39.564121 363.924713
v -0.338154 -46.037640 375.637573
v -0.526344 -46.166573 375.571289
v 0.819492 -53.731819 386.568542
v 0.629860 -53.855263 386.498657
v 2.211544 -62.479229 396.652557
v 2.022564 -62.593597 396.570618
v 3.650517 -72.190338 405.804138
v 3.458824 -72.294815 405.714294
v 3.554695 -72.242325 405.759460
v 2.117033 -62.536556 396.611511
v 0.724670 -53.793472 386.533630
v -0.432355 -46.102142 375.604340
v -1.206158 -39.498592 363.952881
v -1.500741 -33.964874 351.735504
v -1.265761 -29.434752 339.109741
v -0.497031 -25.817566 326.211853
v 0.788847 -23.008123 313.154785
v 2.556002 -20.904501 300.020752
v 4.762133 -19.408401 286.869019
v 7.299706 -18.407001 273.729828
v 10.048618 -17.796822 260.608429
v 12.917416 -17.509285 247.501846
v 15.836730 -17.493402 234.403061
v 18.748087 -17.711699 221.304153
v 21.590544 -18.140724 208.195465
v 24.308796 -18.759003 195.067917
v 26.837433 -19.553255 181.912292
v 29.103832 -20.511921 168.720139
v 31.007221 -21.632088 155.482971
v 32.418373 -22.910627 142.199768
v 33.147285 -24.349924 128.878403
v 32.904568 -25.953054 115.559654
v 31.391533 -27.624121 102.823616
v 28.523720 -29.199356 90.308113
v 24.424099 -30.316761 78.089958
v 19.429134 -30.514299 66.159950
v 14.076491 -29.311279 54.447521
v 9.033138 -26.359085 42.914391
v 4.910002 -21.615128 31.616932
v 2.042915 -15.366403 20.666330
v 0.457020 -8.036700 10.128390
v 0.000067 0.000018 0.000015
vt 0.000000 1.000000
vt 0.000000 0.000000
vt 0.018674 0.000000
vt 0.018674 1.000000
vt 0.034857 0.000000
vt 0.034857 1.000000
vt 0.048906 0.000000
vt 0.048906 1.000000
vt 0.062667 0.000000
vt 0.062667 1.000000
vt 0.079386 0.000000
vt 0.079386 1.000000
vt 0.101877 0.000000
vt 0.101877 1.000000
vt 0.130873 0.000000
vt 0.130874 1.000000
vt 0.165258 0.000000
vt 0.165258 1.000000
vt 0.203071 0.000000
vt 0.203071 1.000000
vt 0.242345 0.000000
vt 0.242345 1.000000
vt 0.281467 0.000000
vt 0.281467 1.000000
vt 0.317999 0.000000
vt 0.317999 1.000000
vt 0.352922 0.000000
vt 0.352922 1.000000
vt 0.386783 0.000000
vt 0.386783 1.000000
vt 0.419896 0.000000
vt 0.419896 1.000000
vt 0.452463 0.000000
vt 0.452463 1.000000
vt 0.484610 0.000000
vt 0.484610 1.000000
vt 0.516420 0.000000
vt 0.516420 1.000000
vt 0.547948 0.000000
vt 0.547948 1.000000
vt 0.579226 0.000000
vt 0.579226 1.000000
vt 0.610265 0.000000
vt 0.610265 1.000000
vt 0.641060 0.000000
vt 0.641060 1.000000
vt 0.671574 0.000000
vt 0.671574 1.000000
vt 0.701787 0.000000
vt 0.701787 1.000000
vt 0.732140 0.000000
vt 0.732140 1.000000
vt 0.762839 0.000000
vt 0.762839 1.000000
vt 0.794025 0.000000
vt 0.794025 1.000000
vt 0.825860 0.000000
vt 0.825861 1.000000
vt 0.858537 0.000000
vt 0.858537 1.000000
vt 0.892225 0.000000
vt 0.892225 1.000000
vt 0.927038 0.000000
vt 0.927038 1.000000
vt 0.962993 0.000000
vt 0.962993 1.000000
vt 1.000000 0.000000
vt 1.000000 1.000000
vt 1.000000 0.500000
vt 0.962993 0.500000
vt 0.927038 0.500000
vt 0.892225 0.500000
vt 0.858537 0.500000
vt 0.825861 0.500000
vt 0.794025 0.500000
vt 0.762839 0.500000
vt 0.732140 0.500000
vt 0.701787 0.500000
vt 0.671574 0.500000
vt 0.641060 0.500000
vt 0.610265 0.500000
vt 0.579226 0.500000
vt 0.547948 0.500000
vt 0.516420 0.500000
vt 0.484610 0.500000
vt 0.452463 0.500000
vt 0.419896 0.500000
vt 0.386783 0.500000
vt 0.352922 0.500000
vt 0.317999 0.500000
vt 0.281467 0.500000
vt 0.242345 0.500000
vt 0.203071 0.500000
vt 0.165258 0.500000
vt 0.130874 0.500000
vt 0.101877 0.500000
vt 0.079386 0.500000
vt 0.062667 0.500000
vt 0.048906 0.500000
vt 0.034857 0.500000
vt 0.018674 0.500000
vt 0.000000 0.500000
vn -0.338188 0.729706 0.594271
vn -0.338392 0.729645 0.594230
vn -0.338393 0.729645 0.594230
vn -0.338188 0.729706 0.594271
vn -0.340705 0.747020 0.570859
vn -0.340556 0.747075 0.570878
vn -0.340556 0.747075 0.570878
vn -0.340705 0.747020 0.570860
vn -0.348800 0.771761 0.531717
vn -0.348585 0.771861 0.531714
vn -0.348585 0.771861 0.531714
vn -0.348800 0.771761 0.531717
vn -0.366730 0.802410 0.470795
vn -0.366882 0.802331 0.470811
vn -0.366882 0.802331 0.470811
vn -0.366730 0.802410 0.470795
vn -0.400838 0.830053 0.387739
vn -0.400362 0.830339 0.387617
vn -0.400364 0.830338 0.387618
vn -0.400838 0.830053 0.387740
vn -0.445403 0.846876 0.290545
vn -0.445085 0.847084 0.290428
vn -0.445087 0.847083 0.290428
vn -0.445403 0.846877 0.290545
vn -0.489712 0.850718 0.190947
vn -0.489737 0.850702 0.190955
vn -0.489737 0.850702 0.190955
vn -0.489712 0.850718 0.190947
vn -0.524988 0.845350 0.098849
vn -0.525012 0.845335 0.098853
vn -0.525011 0.845335 0.098853
vn -0.524988 0.845350 0.098849
vn -0.546301 0.837355 0.019799
vn -0.546973 0.836911 0.020002
vn -0.546971 0.836913 0.020002
vn -0.546302 0.837355 0.019799
vn -0.557460 0.829111 -0.042576
vn -0.557961 0.828780 -0.042464
vn -0.557960 0.828781 -0.042465
vn -0.557460 0.829111 -0.042576
vn -0.561162 0.822927 -0.088819
vn -0.561262 0.822859 -0.088816
vn -0.561263 0.822858 -0.088816
vn -0.561162 0.822927 -0.088819
vn -0.560604 0.819458 -0.119214
vn -0.560465 0.819552 -0.119217
vn -0.560464 0.819553 -0.119217
vn -0.560604 0.819458 -0.119214
vn -0.559818 0.817023 -0.138118
vn -0.559467 0.817267 -0.138099
vn -0.559465 0.817268 -0.138099
vn -0.559818 0.817023 -0.138118
vn -0.558314 0.816079 -0.149336
vn -0.557794 0.816441 -0.149299
vn -0.557792 0.816442 -0.149299
vn -0.558314 0.816079 -0.149336
vn -0.556930 0.815972 -0.154979
vn -0.556355 0.816378 -0.154906
vn -0.556355 0.816378 -0.154906
vn -0.556930 0.815972 -0.154979
vn -0.556800 0.815814 -0.156275
vn -0.556334 0.816145 -0.156206
vn -0.556335 0.816144 -0.156206
vn -0.556800 0.815814 -0.156275
vn -0.557108 0.816076 -0.153790
vn -0.556762 0.816323 -0.153730
vn -0.556761 0.816324 -0.153730
vn -0.557108 0.816076 -0.153790
vn -0.557852 0.816694 -0.147689
vn -0.557861 0.816688 -0.147690
vn -0.557861 0.816688 -0.147690
vn -0.557852 0.816694 -0.147689
vn -0.559855 0.817009 -0.138051
vn -0.560008 0.816899 -0.138083
vn -0.560008 0.816899 -0.138083
vn -0.559855 0.817009 -0.138051
vn -0.562720 0.817231 -0.124418
vn -0.563009 0.817022 -0.124484
vn -0.563009 0.817022 -0.124484
vn -0.562721 0.817231 -0.124418
vn -0.567295 0.816630 -0.106266
vn -0.567315 0.816616 -0.106266
vn -0.567315 0.816616 -0.106266
vn -0.567295 0.816630 -0.106266
vn -0.572705 0.815645 -0.082046
vn -0.572455 0.815826 -0.081990
vn -0.572455 0.815827 -0.081990
vn -0.572705 0.815645 -0.082046
vn -0.578991 0.813812 -0.049799
vn -0.578653 0.814057 -0.049715
vn -0.578655 0.814056 -0.049715
vn -0.578991 0.813812 -0.049799
vn -0.586948 0.809599 -0.006359
vn -0.586705 0.809776 -0.006296
vn -0.586705 0.809776 -0.006296
vn -0.586949 0.809599 -0.006359
vn -0.594824 0.802393 0.048482
vn -0.594884 0.802349 0.048470
vn -0.594884 0.802349 0.048470
vn -0.594824 0.802393 0.048482
vn -0.602350 0.790508 0.110778
vn -0.602372 0.790493 0.110766
vn -0.602371 0.790493 0.110766
vn -0.602350 0.790508 0.110778
vn -0.607445 0.773530 0.180725
vn -0.606812 0.773988 0.180893
vn -0.606807 0.773991 0.180894
vn -0.607445 0.773530 0.180725
vn -0.611003 0.748664 0.257248
vn -0.610072 0.749333 0.257511
vn -0.610071 0.749334 0.257512
vn -0.611003 0.748665 0.257248
vn -0.610476 0.715841 0.338956
vn -0.609852 0.716288 0.339135
vn -0.609851 0.716288 0.339135
vn -0.610476 0.715841 0.338956
vn -0.607298 0.673207 0.421880
vn -0.606903 0.673476 0.422016
vn -0.606904 0.673476 0.422016
vn -0.607298 0.673207 0.421880
vn -0.597951 0.624299 0.502697
vn -0.598102 0.624224 0.502612
vn -0.598102 0.624224 0.502612
vn -0.597951 0.624299 0.502697
vn -0.588148 0.568944 0.574791
vn -0.587955 0.569038 0.574895
vn -0.587955 0.569038 0.574896
vn -0.588148 0.568944 0.574791
vn -0.579480 0.511844 0.634207
vn -0.580043 0.511547 0.633932
vn -0.580044 0.511546 0.633932
vn -0.579480 0.511844 0.634207
vn -0.580626 0.511239 0.633647
vn -0.580626 0.511239 0.633647
vn -0.587753 0.569137 0.575004
vn -0.587753 0.569137 0.575004
vn -0.598256 0.624147 0.502525
vn -0.598256 0.624147 0.502525
vn -0.606498 0.673754 0.422156
vn -0.606498 0.673754 0.422156
vn -0.609221 0.716739 0.339316
vn -0.609221 0.716739 0.339316
vn -0.609125 0.750011 0.257778
vn -0.609125 0.750011 0.257778
vn -0.606167 0.774453 0.181064
vn -0.606167 0.774453 0.181064
vn -0.602393 0.790478 0.110755
vn -0.602393 0.790478 0.110755
vn -0.594945 0.802304 0.048458
vn -0.594945 0.802304 0.048458
vn -0.586465 0.809951 -0.006234
vn -0.586465 0.809951 -0.006234
vn -0.578316 0.814302 -0.049631
vn -0.578316 0.814302 -0.049631
vn -0.572203 0.816009 -0.081933
vn -0.572203 0.816009 -0.081933
vn -0.567335 0.816602 -0.106266
vn -0.567335 0.816602 -0.106266
vn -0.563297 0.816813 -0.124550
vn -0.563297 0.816813 -0.124550
vn -0.560162 0.816788 -0.138115
vn -0.560162 0.816788 -0.138115
vn -0.557870 0.816682 -0.147691
vn -0.557870 0.816682 -0.147691
vn -0.556410 0.816574 -0.153670
vn -0.556410 0.816574 -0.153670
vn -0.555859 0.816482 -0.156136
vn -0.555859 0.816482 -0.156136
vn -0.555766 0.816793 -0.154832
vn -0.555766 0.816793 -0.154832
vn -0.557262 0.816811 -0.149261
vn -0.557262 0.816811 -0.149261
vn -0.559105 0.817518 -0.138080
vn -0.559105 0.817518 -0.138080
vn -0.560319 0.819652 -0.119220
vn -0.560319 0.819652 -0.119220
vn -0.561368 0.822787 -0.088813
vn -0.561368 0.822787 -0.088813
vn -0.558485 0.828433 -0.042348
vn -0.558485 0.828433 -0.042348
vn -0.547677 0.836446 0.020215
vn -0.547677 0.836446 0.020215
vn -0.525036 0.845319 0.098857
vn -0.525036 0.845319 0.098857
vn -0.489761 0.850686 0.190963
vn -0.489761 0.850686 0.190963
vn -0.444781 0.847282 0.290316
vn -0.444781 0.847282 0.290316
vn -0.399922 0.830604 0.387504
vn -0.399922 0.830604 0.387504
vn -0.367022 0.802259 0.470825
vn -0.367022 0.802259 0.470825
vn -0.348386 0.771952 0.531711
vn -0.348386 0.771952 0.531711
vn -0.340416 0.747125 0.570894
vn -0.340416 0.747125 0.570894
vn -0.338585 0.729587 0.594191
vn -0.338585 0.729587 0.594191
s 1
g swirl_small_01_sweep8
f 1/1/1 102/102/2 101/101/3 3/4/4
s 2
f 3/4/5 101/101/6 100/100/7 5/6/8
s 3
f 5/6/9 100/100/10 99/99/11 7/8/12
s 4
f 7/8/13 99/99/14 98/98/15 9/10/16
s 5
f 9/10/17 98/98/18 97/97/19 11/12/20
s 6
f 11/12/21 97/97/22 96/96/23 13/14/24
s 7
f 13/14/25 96/96/26 95/95/27 15/16/28
s 8
f 15/16/29 95/95/30 94/94/31 17/18/32
s 9
f 17/18/33 94/94/34 93/93/35 19/20/36
s 10
f 19/20/37 93/93/38 92/92/39 21/22/40
s 11
f 21/22/41 92/92/42 91/91/43 23/24/44
s 12
f 23/24/45 91/91/46 90/90/47 25/26/48
s 13
f 25/26/49 90/90/50 89/89/51 27/28/52
s 14
f 27/28/53 89/89/54 88/88/55 29/30/56
s 15
f 29/30/57 88/88/58 87/87/59 31/32/60
s 16
f 31/32/61 87/87/62 86/86/63 33/34/64
s 17
f 33/34/65 86/86/66 85/85/67 35/36/68
s 18
f 35/36/69 85/85/70 84/84/71 37/38/72
s 19
f 37/38/73 84/84/74 83/83/75 39/40/76
s 20
f 39/40/77 83/83/78 82/82/79 41/42/80
s 21
f 41/42/81 82/82/82 81/81/83 43/44/84
s 22
f 43/44/85 81/81/86 80/80/87 45/46/88
s 23
f 45/46/89 80/80/90 79/79/91 47/48/92
s 24
f 47/48/93 79/79/94 78/78/95 49/50/96
s 25
f 49/50/97 78/78/98 77/77/99 51/52/100
s 26
f 51/52/101 77/77/102 76/76/103 53/54/104
s 27
f 53/54/105 76/76/106 75/75/107 55/56/108
s 28
f 55/56/109 75/75/110 74/74/111 57/58/112
s 29
f 57/58/113 74/74/114 73/73/115 59/60/116
s 30
f 59/60/117 73/73/118 72/72/119 61/62/120
s 31
f 61/62/121 72/72/122 71/71/123 63/64/124
s 32
f 63/64/125 71/71/126 70/70/127 65/66/128
s 33
f 65/66/129 70/70/130 69/69/131 67/68/132
f 69/69/131 70/70/130 66/65/133 68/67/134
s 32
f 70/70/127 71/71/126 64/63/135 66/65/136
s 31
f 71/71/123 72/72/122 62/61/137 64/63/138
s 30
f 72/72/119 73/73/118 60/59/139 62/61/140
s 29
f 73/73/115 74/74/114 58/57/141 60/59/142
s 28
f 74/74/111 75/75/110 56/55/143 58/57/144
s 27
f 75/75/107 76/76/106 54/53/145 56/55/146
s 26
f 76/76/103 77/77/102 52/51/147 54/53/148
s 25
f 77/77/99 78/78/98 50/49/149 52/51/150
s 24
f 78/78/95 79/79/94 48/47/151 50/49/152
s 23
f 79/79/91 80/80/90 46/45/153 48/47/154
s 22
f 80/80/87 81/81/86 44/43/155 46/45/156
s 21
f 81/81/83 82/82/82 42/41/157 44/43/158
s 20
f 82/82/79 83/83/78 40/39/159 42/41/160
s 19
f 83/83/75 84/84/74 38/37/161 40/39/162
s 18
f 84/84/71 85/85/70 36/35/163 38/37/164
s 17
f 85/85/67 86/86/66 34/33/165 36/35/166
s 16
f 86/86/63 87/87/62 32/31/167 34/33/168
s 15
f 87/87/59 88/88/58 30/29/169 32/31/170
s 14
f 88/88/55 89/89/54 28/27/171 30/29/172
s 13
f 89/89/51 90/90/50 26/25/173 28/27/174
s 12
f 90/90/47 91/91/46 24/23/175 26/25/176
s 11
f 91/91/43 92/92/42 22/21/177 24/23/178
s 10
f 92/92/39 93/93/38 20/19/179 22/21/180
s 9
f 93/93/35 94/94/34 18/17/181 20/19/182
s 8
f 94/94/31 95/95/30 16/15/183 18/17/184
s 7
f 95/95/27 96/96/26 14/13/185 16/15/186
s 6
f 96/96/23 97/97/22 12/11/187 14/13/188
s 5
f 97/97/19 98/98/18 10/9/189 12/11/190
s 4
f 98/98/15 99/99/14 8/7/191 10/9/192
s 3
f 99/99/11 100/100/10 6/5/193 8/7/194
s 2
f 100/100/7 101/101/6 4/3/195 6/5/196
s 1
f 101/101/3 102/102/2 2/2/197 4/3/198
